<svg width="24" height="24" viewBox="0 0 24 24" fill="none" xmlns="http://www.w3.org/2000/svg">
<g id="logo googleg 48dp">
<path id="Shape" fill-rule="evenodd" clip-rule="evenodd" d="M22.8 12.1444C22.8 11.3467 22.7284 10.5796 22.5955 9.84326H12V14.195H18.0545C17.7938 15.6012 17.0011 16.7927 15.8097 17.5904V20.4131H19.4455C21.5727 18.4546 22.8 15.5705 22.8 12.1444Z" fill="#4285F4"/>
<path id="Shape_2" fill-rule="evenodd" clip-rule="evenodd" d="M12.0001 23.1384C15.0376 23.1384 17.5842 22.131 19.4455 20.4128L15.8097 17.5901C14.8023 18.2651 13.5137 18.6639 12.0001 18.6639C9.06995 18.6639 6.58984 16.685 5.70518 14.0259H1.94666V16.9407C3.79779 20.6174 7.60234 23.1384 12.0001 23.1384Z" fill="#34A853"/>
<path id="Shape_3" fill-rule="evenodd" clip-rule="evenodd" d="M5.70511 14.0262C5.48011 13.3512 5.35227 12.6302 5.35227 11.8887C5.35227 11.1472 5.48011 10.4262 5.70511 9.7512V6.83643H1.94659C1.18466 8.35518 0.75 10.0734 0.75 11.8887C0.75 13.704 1.18466 15.4222 1.94659 16.941L5.70511 14.0262Z" fill="#FBBC05"/>
<path id="Shape_4" fill-rule="evenodd" clip-rule="evenodd" d="M12.0001 5.11262C13.6518 5.11262 15.1347 5.68023 16.3006 6.795L19.5273 3.5683C17.579 1.75296 15.0325 0.638184 12.0001 0.638184C7.60234 0.638184 3.79779 3.15921 1.94666 6.83591L5.70518 9.75068C6.58984 7.09159 9.06995 5.11262 12.0001 5.11262Z" fill="#EA4335"/>
</g>
</svg>
